<?xml version="1.0" encoding="UTF-8"?>
<svg width="20px" height="20px" viewBox="0 0 20 20" version="1.1" xmlns="http://www.w3.org/2000/svg" xmlns:xlink="http://www.w3.org/1999/xlink">
    <!-- Generator: Sketch 55 (78076) - https://sketchapp.com -->
    <title>Shape</title>
    <desc>Created with Sketch.</desc>
    <g id="Page-1" stroke="none" stroke-width="1" fill="none" fill-rule="evenodd">
        <g id="Desktop-HD" transform="translate(-591.000000, -1597.000000)" fill="#F2F2F2" fill-rule="nonzero">
            <g id="Group-2" transform="translate(334.000000, 1505.000000)">
                <g id="github-brands" transform="translate(257.000000, 92.000000)">
                    <path d="M6.68951613,16.1039708 C6.68951613,16.1866825 6.59677419,16.2528518 6.47983871,16.2528518 C6.34677419,16.2652586 6.25403226,16.1990892 6.25403226,16.1039708 C6.25403226,16.021259 6.34677419,15.9550897 6.46370968,15.9550897 C6.58467742,15.9426829 6.68951613,16.0088523 6.68951613,16.1039708 Z M5.43548387,15.9178694 C5.40725806,16.0005811 5.48790323,16.0956996 5.60887097,16.1205131 C5.71370968,16.161869 5.83467742,16.1205131 5.85887097,16.0378014 C5.88306452,15.9550897 5.80645161,15.8599712 5.68548387,15.8227509 C5.58064516,15.7938018 5.46370968,15.8351577 5.43548387,15.9178694 Z M7.21774194,15.8475644 C7.10080645,15.8765135 7.02016129,15.9550897 7.03225806,16.0502081 C7.04435484,16.1329199 7.14919355,16.1866825 7.27016129,16.1577334 C7.38709677,16.1287843 7.46774194,16.0502081 7.45564516,15.9674964 C7.44354839,15.8889203 7.33467742,15.8351577 7.21774194,15.8475644 Z M9.87096774,0 C4.27822581,0 0,4.35477175 0,10.0908291 C0,14.6771937 2.81451613,18.6018645 6.83467742,19.9831501 C7.35080645,20.0782686 7.53225806,19.7515573 7.53225806,19.4827443 C7.53225806,19.226338 7.52016129,17.8119677 7.52016129,16.9434947 C7.52016129,16.9434947 4.69758065,17.5638325 4.10483871,15.7110901 C4.10483871,15.7110901 3.64516129,14.5076347 2.98387097,14.1974657 C2.98387097,14.1974657 2.06048387,13.5481788 3.0483871,13.5605855 C3.0483871,13.5605855 4.05241935,13.6432973 4.60483871,14.6275667 C5.48790323,16.2239027 6.96774194,15.7648527 7.54435484,15.4919041 C7.63709677,14.8302104 7.89919355,14.3711603 8.18951613,14.0982117 C5.93548387,13.8418054 3.66129032,13.5068229 3.66129032,9.52838947 C3.66129032,8.3911034 3.96774194,7.82039258 4.61290323,7.09252949 C4.50806452,6.82371642 4.16532258,5.71537945 4.71774194,4.28446679 C5.56048387,4.01565372 7.5,5.40107494 7.5,5.40107494 C8.30645161,5.16948214 9.1733871,5.04955015 10.0322581,5.04955015 C10.891129,5.04955015 11.7580645,5.16948214 12.5645161,5.40107494 C12.5645161,5.40107494 14.5040323,4.01151814 15.3467742,4.28446679 C15.8991935,5.71951504 15.5564516,6.82371642 15.4516129,7.09252949 C16.0967742,7.82452816 16.4919355,8.39523899 16.4919355,9.52838947 C16.4919355,13.5192297 14.1169355,13.8376698 11.8629032,14.0982117 C12.233871,14.424923 12.5483871,15.0452608 12.5483871,16.0171235 C12.5483871,17.4108158 12.5362903,19.1353551 12.5362903,19.4744731 C12.5362903,19.7432862 12.7217742,20.0699974 13.233871,19.974879 C17.266129,18.6018645 20,14.6771937 20,10.0908291 C20,4.35477175 15.4637097,0 9.87096774,0 Z M3.91935484,14.2636351 C3.86693548,14.304991 3.87903226,14.4001094 3.94758065,14.4786856 C4.01209677,14.5448549 4.10483871,14.573804 4.15725806,14.5200414 C4.20967742,14.4786856 4.19758065,14.3835671 4.12903226,14.304991 C4.06451613,14.2388216 3.97177419,14.2098725 3.91935484,14.2636351 Z M3.48387097,13.9286527 C3.45564516,13.9824153 3.49596774,14.0485847 3.5766129,14.0899405 C3.64112903,14.1312964 3.72177419,14.1188896 3.75,14.0609914 C3.77822581,14.0072288 3.73790323,13.9410594 3.65725806,13.8997036 C3.5766129,13.8748901 3.51209677,13.8872968 3.48387097,13.9286527 Z M4.79032258,15.4009212 C4.72580645,15.4546838 4.75,15.5787514 4.84274194,15.6573275 C4.93548387,15.752446 5.05241935,15.7648527 5.10483871,15.6986834 C5.15725806,15.6449207 5.13306452,15.5208532 5.05241935,15.442277 C4.96370968,15.3471586 4.84274194,15.3347518 4.79032258,15.4009212 Z M4.33064516,14.7929901 C4.26612903,14.8343459 4.26612903,14.9418712 4.33064516,15.0369896 C4.39516129,15.1321081 4.50403226,15.173464 4.55645161,15.1321081 C4.62096774,15.0783455 4.62096774,14.9708203 4.55645161,14.8757018 C4.5,14.7805833 4.39516129,14.7392275 4.33064516,14.7929901 Z" id="Shape"></path>
                </g>
            </g>
        </g>
    </g>
</svg>