<?xml version="1.0" encoding="UTF-8"?>
<svg width="394px" height="466px" viewBox="0 0 394 466" version="1.1" xmlns="http://www.w3.org/2000/svg" xmlns:xlink="http://www.w3.org/1999/xlink">
    <!-- Generator: Sketch 53.2 (72643) - https://sketchapp.com -->
    <title>Me</title>
    <desc>Created with Sketch.</desc>
    <defs>
        <linearGradient x1="58.9985986%" y1="50%" x2="-13.8444868%" y2="55.6714654%" id="linearGradient-1">
            <stop stop-color="#2B2B2B" offset="0%"></stop>
            <stop stop-color="#343434" offset="100%"></stop>
        </linearGradient>
        <path d="M96,5.68434189e-14 C160.666667,32 204.666667,46.6666667 228,44 C263,40 248,22.1538462 244,11 C241.333333,3.56410256 259.333333,31.2307692 298,94 L-5.68434189e-14,94 L96,5.68434189e-14 Z" id="path-2"></path>
        <linearGradient x1="81.1228003%" y1="20.705998%" x2="-19.1065089%" y2="55.4350774%" id="linearGradient-4">
            <stop stop-color="#2A2A2A" offset="0%"></stop>
            <stop stop-color="#3B3B3B" offset="100%"></stop>
        </linearGradient>
        <path d="M65.3400395,311 C63.3400395,307.64834 71.3400395,298.64834 39.3400395,266.64834 C29.1736112,256.481911 18.6483817,247.389926 12.3400395,232.64834 C-1.20784954,200.989091 -3.16525078,156.633184 4.3400395,113.64834 C15.3400395,50.6483397 57.3400395,4.64833973 98.3400395,4.64833973 C118.894034,4.64833973 152.194519,-3.36214718 182.340039,1.64833973 C212.327177,6.63250178 238.18428,17.6430719 249.340039,15.6483397 C271.71048,11.6483397 294.444851,22.6483397 301.392445,44.6483397 C308.340039,66.6483397 283.969599,98.6483397 264.340039,108.64834 C251.253666,115.315006 226.587,136.64834 190.340039,172.64834 C195.006706,195.981673 194.673373,209.981673 189.340039,214.64834 C184.006706,219.315006 178.006706,221.981673 171.340039,222.64834 C176.673373,217.315006 173.006706,210.315006 160.340039,201.64834 C141.340039,188.64834 90.3400395,184.64834 90.3400395,222.64834 C90.3400395,247.981673 97.3400395,262.64834 111.340039,266.64834 C93.20813,272.653333 81.8747967,278.32 77.3400395,283.64834 C70.5379037,291.640849 65.3400395,314.64834 65.3400395,311 Z" id="path-5"></path>
    </defs>
    <g id="Page-1" stroke="none" stroke-width="1" fill="none" fill-rule="evenodd">
        <g id="Artboard" transform="translate(-107.000000, -134.000000)">
            <g id="Me" transform="translate(107.000000, 134.351660)">
                <path d="M0,465.64834 L96,371.64834 C109.333333,352.891179 116,337.557845 116,325.64834 C116,307.784082 127,297.64834 81,256.64834 C35,215.64834 37.2086344,4.64833973 161,4.64833973 C243.527577,4.64833973 299.86091,36.6483397 330,100.64834 C342.666667,123.981673 349,139.315006 349,146.64834 C349,157.64834 342,172.64834 360,183.64834 C378,194.64834 389.627424,213.310687 392,223.64834 C394.372576,233.985992 395,244.64834 374,244.64834 C353,244.64834 371,272.64834 360,278.64834 C352.666667,282.64834 349.666667,284.64834 351,284.64834 C353.666667,287.981673 353.666667,291.64834 351,295.64834 C347,301.64834 340,294.64834 340,322.64834 C340,350.64834 285,345.64834 280,344.64834 C275,343.64834 259,335.64834 255,347.64834 C252.333333,355.64834 248.666667,367.315006 244,382.64834 L298,465.64834 L0,465.64834 Z" id="Path" stroke="#676767"></path>
                <g id="Path-2-Copy" transform="translate(0.000000, 371.648340)">
                    <mask id="mask-3" fill="white">
                        <use xlink:href="#path-2"></use>
                    </mask>
                    <g id="Mask">
                        <use fill="#343434" xlink:href="#path-2"></use>
                        <use fill="url(#linearGradient-1)" xlink:href="#path-2"></use>
                    </g>
                </g>
                <path d="" id="Path-3" stroke="#979797"></path>
                <path d="M351,283.64834 C342,288.64834 331,290.64834 323,290.64834 C315,290.64834 345,296.64834 348,297.64834 C349.772748,298.239256 352,295.64834 353,292.64834 C353.642643,290.72041 354.262979,287.64834 351,283.64834 Z" id="Path-4" fill="#969696"></path>
                <path d="M344,153.64834 C332.348046,159.085918 327,155.64834 319,160.64834 C311,165.64834 313,170.64834 298,176.64834 C283,182.64834 301,171.64834 311,152.64834 C321,133.64834 345,138.64834 347,140.64834 C349,142.64834 349,144.458138 349,146.64834 C349,148.838541 347.348046,152.085918 344,153.64834 Z" id="Path-5" fill="#343434"></path>
                <g id="Path-6" transform="translate(51.659961, 0.000000)">
                    <mask id="mask-6" fill="white">
                        <use xlink:href="#path-5"></use>
                    </mask>
                    <g id="Mask">
                        <use fill="#343434" xlink:href="#path-5"></use>
                        <use fill="url(#linearGradient-4)" style="mix-blend-mode: darken;" xlink:href="#path-5"></use>
                    </g>
                    <path d="M167.340039,219.64834 C187.649978,215.64834 195.316645,199.981673 190.340039,172.64834 C200.69954,223.64834 197.032874,244.481673 179.340039,235.14834 C168.801527,229.589058 136.875131,225.64834 167.340039,219.64834 Z" id="Triangle-Copy-2" fill="#2B2B2B" mask="url(#mask-6)"></path>
                    <path d="M101.192066,248.957091 C113.992181,251.072991 125.737472,245.500906 136.42794,232.240837 C152.463641,212.350732 143.630506,190.420459 145.95513,193.434604 C156.738154,207.416047 151.290372,232.261472 130.133195,247.336696 C127.598242,249.142938 117.924127,255.240445 107.06321,252.897861 C97.9626944,250.934977 83.4983682,239.963079 78.2854808,232.679723 C75.1980317,228.365993 75.7424394,231.277112 86.3966056,239.983013 C88.5454656,241.738923 93.4772855,244.730283 101.192066,248.957091 Z" id="Triangle-Copy-3" fill="#2E2E2E" mask="url(#mask-6)" transform="translate(113.997709, 223.290777) rotate(138.000000) translate(-113.997709, -223.290777) "></path>
                    <path d="M61.3898971,262.457639 C67.2764561,283.838549 63.540806,291.73145 42.383629,306.806673 C39.8486761,308.612915 48.7876552,297.204579 52.6142527,289.92943 C59.081395,277.634062 60.4611351,259.084229 61.3898971,262.457639 Z" id="Triangle-Copy-4" fill="#2E2E2E" mask="url(#mask-6)" transform="translate(52.919548, 284.526112) rotate(302.000000) translate(-52.919548, -284.526112) "></path>
                    <path d="M298.340039,33.6483397 C312.68732,49.5475727 316.353986,61.8809061 309.340039,70.6483397 C295.020653,88.5475727 268.353986,112.214239 229.340039,141.64834 C228.499001,139.131707 229.165667,136.46504 231.340039,133.64834 C239.401754,123.205124 268.457123,101.6963 277.340039,93.6483397 C284.775984,86.9113423 299.637681,70.4273054 300.340039,54.6483397 C300.613162,48.5124593 299.946495,41.5124593 298.340039,33.6483397 Z" id="Triangle" fill="#363636" mask="url(#mask-6)"></path>
                    <path d="M34.3400395,40.6483397 C43.3990792,36.1188199 58.2546423,20.6840857 85.3400395,13.6483397 C92.7699193,11.7183423 108.494498,10.6858753 131.340039,7.64833973 C140.65814,6.40940817 154.324807,2.40940817 172.340039,-4.35166027 C155.326188,-3.25276711 138.659521,-4.25276711 122.340039,-7.35166027 C115.996702,-8.55619142 84.3383857,-2.28458234 68.3400395,4.64833973 C48.2927896,13.335864 30.9120256,42.3623467 34.3400395,40.6483397 Z" id="Triangle" fill="#343434" mask="url(#mask-6)"></path>
                </g>
                <path d="" id="Path-8" stroke="#979797"></path>
                <path d="M89.987008,117.593329 C111.173844,78.1226474 136.433928,58.3873064 165.767262,58.3873064 C182.774909,58.3873064 204.839211,71.8075407 224.09257,71.7949157 C254.649029,71.7748788 280.308222,58.2654781 283.98494,57.8110523 C285.482779,58.666637 277.183265,65.3718269 259.086399,77.9266219 C243.300999,85.3614209 231.17245,88.8303104 222.70075,88.3332901 C203.813375,87.2251998 183.268016,73.2754987 163.939222,73.2754987 C115.439222,73.2754987 93.1041072,125.02863 78.8477906,155.518489 C77.4987262,151.481013 81.2117986,138.839293 89.987008,117.593329 Z" id="Rectangle-Copy-2" fill="#303030" transform="translate(181.367415, 106.664770) rotate(-7.000000) translate(-181.367415, -106.664770) "></path>
                <path d="M96.1738726,168.536635 C121.1989,127.916556 148.37808,107.606517 177.711413,107.606517 C194.71906,107.606517 216.783362,118.388953 236.036721,118.37881 C266.59318,118.362711 292.252374,107.508634 295.929092,107.143528 C297.426931,107.830944 289.127417,113.218203 271.030551,123.305306 C255.245151,129.278767 243.116602,132.065833 234.644902,131.666504 C215.757527,130.776213 195.212167,119.568379 175.883373,119.568379 C143.55004,119.568379 116.980206,136.426762 96.1738726,170.143528 L96.1738726,168.536635 Z" id="Rectangle-Copy-3" fill="#303030" transform="translate(196.137354, 138.643528) rotate(-11.000000) translate(-196.137354, -138.643528) "></path>
            </g>
        </g>
    </g>
</svg>