<svg width="1440" height="639" xmlns="http://www.w3.org/2000/svg" xmlns:xlink="http://www.w3.org/1999/xlink"><defs><path id="a" d="M0 437.27l458.62-245.873L1264 639H0z"/><filter x="-1.8%" y="-5.1%" width="103.6%" height="110.3%" filterUnits="objectBoundingBox" id="b"><feGaussianBlur stdDeviation="19" in="SourceAlpha" result="shadowBlurInner1"/><feOffset dy="8" in="shadowBlurInner1" result="shadowOffsetInner1"/><feComposite in="shadowOffsetInner1" in2="SourceAlpha" operator="arithmetic" k2="-1" k3="1" result="shadowInnerInner1"/><feColorMatrix values="0 0 0 0 0.670227466 0 0 0 0 0.670227466 0 0 0 0 0.670227466 0 0 0 1 0" in="shadowInnerInner1"/></filter><path id="c" d="M0 437.27l458.62-245.873-229.31 439.346L0 639z"/><filter x="-5.9%" y="-6%" width="111.8%" height="112.1%" filterUnits="objectBoundingBox" id="d"><feGaussianBlur stdDeviation="14" in="SourceAlpha" result="shadowBlurInner1"/><feOffset dy="26" in="shadowBlurInner1" result="shadowOffsetInner1"/><feComposite in="shadowOffsetInner1" in2="SourceAlpha" operator="arithmetic" k2="-1" k3="1" result="shadowInnerInner1"/><feColorMatrix values="0 0 0 0 0.642617985 0 0 0 0 0.642617985 0 0 0 0 0.642617985 0 0 0 1 0" in="shadowInnerInner1"/></filter><path id="e" d="M0 639L1030 53.104l410 184.506V639z"/><filter x="-3%" y="-7.3%" width="105.9%" height="114.5%" filterUnits="objectBoundingBox" id="f"><feGaussianBlur stdDeviation="37.5" in="SourceAlpha" result="shadowBlurInner1"/><feOffset dy="10" in="shadowBlurInner1" result="shadowOffsetInner1"/><feComposite in="shadowOffsetInner1" in2="SourceAlpha" operator="arithmetic" k2="-1" k3="1" result="shadowInnerInner1"/><feColorMatrix values="0 0 0 0 0.878135629 0 0 0 0 0.878135629 0 0 0 0 0.878135629 0 0 0 0.5 0" in="shadowInnerInner1"/></filter><path id="g" d="M0 639L1030 53.104 755.265 639z"/><filter x="-1.8%" y="-3.2%" width="103.7%" height="106.5%" filterUnits="objectBoundingBox" id="h"><feGaussianBlur stdDeviation="10.5" in="SourceAlpha" result="shadowBlurInner1"/><feOffset dx="17" dy="8" in="shadowBlurInner1" result="shadowOffsetInner1"/><feComposite in="shadowOffsetInner1" in2="SourceAlpha" operator="arithmetic" k2="-1" k3="1" result="shadowInnerInner1"/><feColorMatrix values="0 0 0 0 0.837691327 0 0 0 0 0.837179007 0 0 0 0 0.837179007 0 0 0 1 0" in="shadowInnerInner1"/></filter><linearGradient x1="105.567%" y1="2.451%" x2="28.415%" y2="50%" id="j"><stop stop-color="#FFF" stop-opacity=".5" offset="0%"/><stop stop-color="#F1CCCC" stop-opacity=".5" offset="7.108%"/><stop stop-color="#D56A6A" stop-opacity=".5" offset="100%"/></linearGradient><path d="M.855 34c5.95-6.006 10.165-9.527 12.645-10.564 8.11-3.388 13.24.5 13.24 4.577 0 8.922.584-18.957 0-23.194C26.158.582 19.135-2 11.117 1.973 5.77 4.62 2.065 9.308 0 16.033L.855 34z" id="i"/><radialGradient cx="79.574%" cy="-77.8%" fx="79.574%" fy="-77.8%" r="177.327%" id="l"><stop stop-color="#FFF" stop-opacity=".5" offset="0%"/><stop stop-color="#B5B5B5" stop-opacity=".727" offset="16.219%"/><stop stop-color="#999" stop-opacity=".81" offset="42.844%"/><stop stop-color="#818181" stop-opacity=".886" offset="55.843%"/><stop stop-color="#5B5B5B" offset="100%"/></radialGradient><circle id="k" cx="3.5" cy="7.5" r="3.5"/></defs><g fill-rule="nonzero" fill="none"><g><use fill="#C2C2C2" xlink:href="#a"/><use fill="#000" filter="url(#b)" xlink:href="#a"/></g><g><use fill="#B4B4B4" style="mix-blend-mode:darken" xlink:href="#c"/><use fill="#000" filter="url(#d)" xlink:href="#c"/></g><g><use fill="#F3F3F3" xlink:href="#e"/><use fill="#000" filter="url(#f)" xlink:href="#e"/></g><g><use fill="#E6E6E6" xlink:href="#g"/><use fill="#000" filter="url(#h)" xlink:href="#g"/></g><path d="M872.778 639c178.626-96.957 267.939-170.217 267.939-219.781 0-49.565-16.787-86.089-50.36-109.572-53.334-42.63-80-77.575-80-104.837s13.511-49.632 40.536-67.11c23.096-13.926 23.096-27.567 0-40.922-23.096-13.356-29.926-27.019-20.49-40.99.63-1.17.535-2.027-.284-2.568" stroke="#5B5B5B" stroke-width=".5"/><path fill="#B55959" d="M1057.753 29.753l-2.932-7.024V9.753l3 15.07z"/><g transform="translate(1031)"><use fill="#D56A6A" xlink:href="#i"/><use fill="url(#j)" xlink:href="#i"/></g><path d="M1030.178 53c2.193-10.894 2.193-25.56 0-44" stroke="#5B5B5B" stroke-linecap="round"/><g transform="translate(1026)"><use fill="#5B5B5B" xlink:href="#k"/><use fill="url(#l)" xlink:href="#k"/></g></g></svg>