<svg width="800" height="490" xmlns="http://www.w3.org/2000/svg"><defs><linearGradient x1="42.632%" y1="24.374%" x2="50%" y2="100%" id="a"><stop stop-color="silver" offset="0%"/><stop stop-color="#BBBABA" offset="100%"/></linearGradient><linearGradient x1="50%" y1="-180.372%" x2="50%" y2="99.038%" id="b"><stop stop-color="#CACACA" offset="0%"/><stop stop-color="#BBBABA" offset="100%"/></linearGradient><linearGradient x1="58.862%" y1="146.442%" x2="52.426%" y2="-108.9%" id="c"><stop stop-color="#E4E4E4" offset="0%"/><stop stop-color="#EEE" offset="100%"/></linearGradient><linearGradient x1="34.368%" y1="-11.164%" x2="50%" y2="100%" id="d"><stop stop-color="#3F3F3F" offset="0%"/><stop stop-color="#3B3B3B" offset="49.2%"/><stop stop-color="#363636" offset="78.376%"/><stop stop-color="#313131" offset="100%"/></linearGradient></defs><g fill="none" fill-rule="nonzero"><path d="M27.5 437.5h746V26a4.5 4.5 0 0 0-4.5-4.5H32a4.5 4.5 0 0 0-4.5 4.5v411.5z" stroke="#979797" fill="url(#a)"/><path d="M10.5 437.5V465a4.5 4.5 0 0 0 4.5 4.5h770a4.5 4.5 0 0 0 4.5-4.5v-27.5h-779z" stroke="#979797" fill="url(#b)"/><path d="M317.5 437.5v6.5a9.5 9.5 0 0 0 9.5 9.5h146a9.5 9.5 0 0 0 9.5-9.5v-6.5h-165z" stroke="#979797" fill="url(#c)"/><rect stroke="#515151" fill="url(#d)" x="43.5" y="37.5" width="713" height="382" rx="3"/></g></svg>