<?xml version="1.0" encoding="UTF-8"?>
<svg width="500px" height="500px" viewBox="0 0 500 500" version="1.1" xmlns="http://www.w3.org/2000/svg" xmlns:xlink="http://www.w3.org/1999/xlink">
    <!-- Generator: Sketch 52.5 (67469) - http://www.bohemiancoding.com/sketch -->
    <title>Logo</title>
    <desc>Created with Sketch.</desc>
    <defs>
        <filter x="-8.6%" y="-11.2%" width="117.2%" height="122.5%" filterUnits="objectBoundingBox" id="filter-1">
            <feOffset dx="0" dy="2" in="SourceAlpha" result="shadowOffsetOuter1"></feOffset>
            <feGaussianBlur stdDeviation="10" in="shadowOffsetOuter1" result="shadowBlurOuter1"></feGaussianBlur>
            <feColorMatrix values="0 0 0 0 0.337254902   0 0 0 0 0.447058824   0 0 0 0 0.898039216  0 0 0 0.2 0" type="matrix" in="shadowBlurOuter1" result="shadowMatrixOuter1"></feColorMatrix>
            <feMerge>
                <feMergeNode in="shadowMatrixOuter1"></feMergeNode>
                <feMergeNode in="SourceGraphic"></feMergeNode>
            </feMerge>
        </filter>
        <linearGradient x1="90.4765145%" y1="44.2940695%" x2="-78.3332199%" y2="65.3354064%" id="linearGradient-2">
            <stop stop-color="#000000" offset="0%"></stop>
            <stop stop-color="#6A6A6A" offset="75.1656%"></stop>
            <stop stop-color="#BBBBBB" offset="86.2398%"></stop>
            <stop stop-color="#FFFFFF" offset="100%"></stop>
        </linearGradient>
        <linearGradient x1="113.210995%" y1="50.0356843%" x2="-214.6347%" y2="2.7085567%" id="linearGradient-3">
            <stop stop-color="#000000" offset="0%"></stop>
            <stop stop-color="#434343" stop-opacity="0.737047" offset="40.2155%"></stop>
            <stop stop-color="#9A9A9A" stop-opacity="0.396513" offset="60.3487%"></stop>
            <stop stop-color="#FFFFFF" stop-opacity="0" offset="100%"></stop>
        </linearGradient>
        <linearGradient x1="9.52404518%" y1="44.2940695%" x2="178.332735%" y2="65.3354064%" id="linearGradient-4">
            <stop stop-color="#000000" offset="0%"></stop>
            <stop stop-color="#6A6A6A" offset="75.1656%"></stop>
            <stop stop-color="#BBBBBB" offset="86.2398%"></stop>
            <stop stop-color="#FFFFFF" offset="100%"></stop>
        </linearGradient>
        <linearGradient x1="-13.2115227%" y1="50.0356843%" x2="314.634172%" y2="2.7085567%" id="linearGradient-5">
            <stop stop-color="#000000" offset="0%"></stop>
            <stop stop-color="#434343" stop-opacity="0.737047" offset="40.2155%"></stop>
            <stop stop-color="#9A9A9A" stop-opacity="0.396513" offset="60.3487%"></stop>
            <stop stop-color="#FFFFFF" stop-opacity="0" offset="100%"></stop>
        </linearGradient>
    </defs>
    <g id="Logo" stroke="none" stroke-width="1" fill="none" fill-rule="evenodd">
        <g id="M-logo-Copy" filter="url(#filter-1)" transform="translate(0.000000, 59.000000)">
            <polygon id="Path" fill="#000000" points="117 208.710421 116.442695 0 115.887562 0.00142482808 115.886114 0.00069845719 115.886114 0.00143026489 0 324.539363 0.17604681 324.600403 0.0397930858 324.680607 35.6969676 382.867983 35.7847612 382.81617 36.1808819 383 116.989143 208.710421 116.987696 208.710421"></polygon>
            <polygon id="Path" fill="url(#linearGradient-2)" points="117 208.710421 116.442695 0 115.887562 0.00142482808 115.886114 0.00069845719 115.886114 0.00143026489 0 324.539363 0.17604681 324.600403 0.0397930858 324.680607 35.6969676 382.867983 35.7847612 382.81617 36.1808819 383 116.989143 208.710421 116.987696 208.710421"></polygon>
            <polygon id="Path" fill="#000000" points="117.540105 0 249.835651 220.026932 250 220.299998 250 382.999291 249.729596 383 117.647564 208.901479 117.540105 208.561744 117.540105 208.563162 117 0.547707392 117 0.273286163"></polygon>
            <polygon id="Path" fill="url(#linearGradient-3)" points="117.540105 0 249.835651 220.026932 250 220.299998 250 382.999291 249.729596 383 117.647564 208.901479 117.540105 208.561744 117.540105 208.563162 117 0.547707392 117 0.273286163"></polygon>
            <polygon id="Path" fill="#000000" points="383 208.710421 383.557301 0 384.112431 0.00142482808 384.114603 0.00069845719 384.114603 0.00143026489 500 324.539363 499.823401 324.600403 499.960193 324.680607 464.303036 382.867983 464.21546 382.81617 463.818835 383 383.01158 208.710421 383.012304 208.710421"></polygon>
            <polygon id="Path" fill="url(#linearGradient-4)" points="383 208.710421 383.557301 0 384.112431 0.00142482808 384.114603 0.00069845719 384.114603 0.00143026489 500 324.539363 499.823401 324.600403 499.960193 324.680607 464.303036 382.867983 464.21546 382.81617 463.818835 383 383.01158 208.710421 383.012304 208.710421"></polygon>
            <polygon id="Path" fill="#000000" points="382.459193 0 250.164349 220.026932 250 220.299998 250 382.999291 250.270404 383 382.352436 208.901479 382.459193 208.561744 382.459193 208.563162 383 0.547707392 383 0.273286163"></polygon>
            <polygon id="Path" fill="url(#linearGradient-5)" points="382.459193 0 250.164349 220.026932 250 220.299998 250 382.999291 250.270404 383 382.352436 208.901479 382.459193 208.561744 382.459193 208.563162 383 0.547707392 383 0.273286163"></polygon>
        </g>
    </g>
</svg>