<svg width="500" height="500" xmlns="http://www.w3.org/2000/svg"><defs><filter x="-8.6%" y="-11.2%" width="117.2%" height="122.5%" filterUnits="objectBoundingBox" id="a"><feOffset dy="2" in="SourceAlpha" result="shadowOffsetOuter1"/><feGaussianBlur stdDeviation="10" in="shadowOffsetOuter1" result="shadowBlurOuter1"/><feColorMatrix values="0 0 0 0 0.337254902 0 0 0 0 0.447058824 0 0 0 0 0.898039216 0 0 0 0.2 0" in="shadowBlurOuter1" result="shadowMatrixOuter1"/><feMerge><feMergeNode in="shadowMatrixOuter1"/><feMergeNode in="SourceGraphic"/></feMerge></filter><linearGradient x1="90.477%" y1="44.294%" x2="-78.333%" y2="65.335%" id="b"><stop offset="0%"/><stop stop-color="#6A6A6A" offset="75.166%"/><stop stop-color="#BBB" offset="86.24%"/><stop stop-color="#FFF" offset="100%"/></linearGradient><linearGradient x1="113.211%" y1="50.036%" x2="-214.635%" y2="2.709%" id="c"><stop offset="0%"/><stop stop-color="#434343" stop-opacity=".737" offset="40.215%"/><stop stop-color="#9A9A9A" stop-opacity=".397" offset="60.349%"/><stop stop-color="#FFF" stop-opacity="0" offset="100%"/></linearGradient><linearGradient x1="9.524%" y1="44.294%" x2="178.333%" y2="65.335%" id="d"><stop offset="0%"/><stop stop-color="#6A6A6A" offset="75.166%"/><stop stop-color="#BBB" offset="86.24%"/><stop stop-color="#FFF" offset="100%"/></linearGradient><linearGradient x1="-13.212%" y1="50.036%" x2="314.634%" y2="2.709%" id="e"><stop offset="0%"/><stop stop-color="#434343" stop-opacity=".737" offset="40.215%"/><stop stop-color="#9A9A9A" stop-opacity=".397" offset="60.349%"/><stop stop-color="#FFF" stop-opacity="0" offset="100%"/></linearGradient></defs><g filter="url(#a)" transform="translate(0 59)" fill="none" fill-rule="evenodd"><path fill="#000" d="M117 208.71L116.443 0l-.555.001h-.002L0 324.54l.176.061-.136.08 35.657 58.188.088-.052.396.184 80.808-174.29h-.001z"/><path fill="url(#b)" d="M117 208.71L116.443 0l-.555.001h-.002L0 324.54l.176.061-.136.08 35.657 58.188.088-.052.396.184 80.808-174.29h-.001z"/><path fill="#000" d="M117.54 0l132.296 220.027.164.273V383h-.27L117.648 208.901l-.108-.34v.002L117 .548V.273z"/><path fill="url(#c)" d="M117.54 0l132.296 220.027.164.273V383h-.27L117.648 208.901l-.108-.34v.002L117 .548V.273z"/><path fill="#000" d="M383 208.71L383.557 0l.555.001h.003L500 324.54l-.177.061.137.08-35.657 58.188-.088-.052-.396.184-80.807-174.29z"/><path fill="url(#d)" d="M383 208.71L383.557 0l.555.001h.003L500 324.54l-.177.061.137.08-35.657 58.188-.088-.052-.396.184-80.807-174.29z"/><path fill="#000" d="M382.46 0L250.163 220.027l-.164.273V383h.27l132.082-174.099.107-.34v.002L383 .548V.273z"/><path fill="url(#e)" d="M382.46 0L250.163 220.027l-.164.273V383h.27l132.082-174.099.107-.34v.002L383 .548V.273z"/></g></svg>