<svg width="168" height="168" xmlns="http://www.w3.org/2000/svg"><path d="M81.432 144H7.882v23.2H0V0h6.688L83.6 133.76 160.273 0h6.688l.239 167.2h-7.882l-.24-150.719-73.328 127.55h-4.3l-.018-.031zm-4.631-8l-4.632-8H7.882v8h68.919zm-9.263-16l-4.632-8H7.882v8h59.656zm-9.263-16l-4.632-8H7.883v8h50.392zM49.01 88l-4.631-8H7.882v8h41.13zm-9.263-16l-4.631-8H7.882v8h31.866zm-9.263-16l-4.632-8H7.883v8h22.602zm-9.263-16l-4.632-8H7.882v8h13.34zm-9.263-16l-4.077-7.041V24h4.077z" fill="#262626" fill-rule="nonzero"/></svg>