<svg width="1440" height="639" xmlns="http://www.w3.org/2000/svg" xmlns:xlink="http://www.w3.org/1999/xlink"><defs><path id="b" d="M0 437.27l458.62-245.873L1264 639H0z"/><filter x="-.6%" y="-1.1%" width="101.1%" height="103.1%" filterUnits="objectBoundingBox" id="a"><feOffset dy="2" in="SourceAlpha" result="shadowOffsetOuter1"/><feGaussianBlur stdDeviation="2" in="shadowOffsetOuter1" result="shadowBlurOuter1"/><feColorMatrix values="0 0 0 0 0 0 0 0 0 0 0 0 0 0 0 0 0 0 0.5 0" in="shadowBlurOuter1"/></filter><filter x="-2.1%" y="-5.6%" width="104.3%" height="112.1%" filterUnits="objectBoundingBox" id="c"><feGaussianBlur stdDeviation="19" in="SourceAlpha" result="shadowBlurInner1"/><feOffset dy="8" in="shadowBlurInner1" result="shadowOffsetInner1"/><feComposite in="shadowOffsetInner1" in2="SourceAlpha" operator="arithmetic" k2="-1" k3="1" result="shadowInnerInner1"/><feColorMatrix values="0 0 0 0 0.641705405 0 0 0 0 0.83992073 0 0 0 0 0.871890944 0 0 0 1 0" in="shadowInnerInner1"/></filter><path id="d" d="M0 437.27l458.62-245.873-229.31 439.346L0 639z"/><filter x="-5.9%" y="-6%" width="111.8%" height="112.1%" filterUnits="objectBoundingBox" id="e"><feGaussianBlur stdDeviation="14" in="SourceAlpha" result="shadowBlurInner1"/><feOffset dy="26" in="shadowBlurInner1" result="shadowOffsetInner1"/><feComposite in="shadowOffsetInner1" in2="SourceAlpha" operator="arithmetic" k2="-1" k3="1" result="shadowInnerInner1"/><feColorMatrix values="0 0 0 0 0.422125627 0 0 0 0 0.553865691 0 0 0 0 0.569834184 0 0 0 1 0" in="shadowInnerInner1"/></filter><path id="f" d="M0 639L1030 53.104l410 184.506V639z"/><filter x="-3%" y="-7.3%" width="105.9%" height="114.5%" filterUnits="objectBoundingBox" id="g"><feGaussianBlur stdDeviation="37.5" in="SourceAlpha" result="shadowBlurInner1"/><feOffset dy="10" in="shadowBlurInner1" result="shadowOffsetInner1"/><feComposite in="shadowOffsetInner1" in2="SourceAlpha" operator="arithmetic" k2="-1" k3="1" result="shadowInnerInner1"/><feColorMatrix values="0 0 0 0 0.878135629 0 0 0 0 0.878135629 0 0 0 0 0.878135629 0 0 0 0.5 0" in="shadowInnerInner1"/></filter><linearGradient x1="105.567%" y1="2.451%" x2="28.415%" y2="50%" id="i"><stop stop-color="#FFF" stop-opacity=".5" offset="0%"/><stop stop-color="#F1CCCC" stop-opacity=".5" offset="7.108%"/><stop stop-color="#D56A6A" stop-opacity=".5" offset="100%"/></linearGradient><path d="M.855 34c5.95-6.006 10.165-9.527 12.645-10.564 8.11-3.388 13.24.5 13.24 4.577 0 8.922.584-18.957 0-23.194C26.158.582 19.135-2 11.117 1.973 5.77 4.62 2.065 9.308 0 16.033L.855 34z" id="h"/><radialGradient cx="79.574%" cy="-77.8%" fx="79.574%" fy="-77.8%" r="177.327%" id="k"><stop stop-color="#FFF" stop-opacity=".5" offset="0%"/><stop stop-color="#B5B5B5" stop-opacity=".727" offset="16.219%"/><stop stop-color="#999" stop-opacity=".81" offset="42.844%"/><stop stop-color="#818181" stop-opacity=".886" offset="55.843%"/><stop stop-color="#5B5B5B" offset="100%"/></radialGradient><circle id="j" cx="3.5" cy="7.5" r="3.5"/></defs><g fill-rule="nonzero" fill="none"><g><use fill="#000" filter="url(#a)" xlink:href="#b"/><use fill="#8AB5BB" xlink:href="#b"/><use fill="#000" filter="url(#c)" xlink:href="#b"/></g><g><use fill="#7A9A9F" style="mix-blend-mode:darken" xlink:href="#d"/><use fill="#000" filter="url(#e)" xlink:href="#d"/></g><g><use fill="#EBF8FB" xlink:href="#f"/><use fill="#000" filter="url(#g)" xlink:href="#f"/></g><path fill="#CAE6EA" d="M0 639L1030 53.104 1251.774 639z"/><path fill="#B55959" d="M1057.753 29.753l-2.932-7.024V9.753l3 15.07z"/><g transform="translate(1031)"><use fill="#D56A6A" xlink:href="#h"/><use fill="url(#i)" xlink:href="#h"/></g><path d="M1030.178 53c2.193-10.894 2.193-25.56 0-44" stroke="#5B5B5B" stroke-linecap="round"/><g transform="translate(1026)"><use fill="#5B5B5B" xlink:href="#j"/><use fill="url(#k)" xlink:href="#j"/></g></g></svg>