<svg width="302" height="302" xmlns="http://www.w3.org/2000/svg" xmlns:xlink="http://www.w3.org/1999/xlink"><defs><path d="M33.907 0h188.186C240.819 0 256 15.13 256 33.795v188.41C256 240.869 240.82 256 222.093 256H33.907C15.181 256 0 240.87 0 222.205V33.795C0 15.131 15.18 0 33.907 0zM.43 49.848l17.444-17.387L.43 49.848zm0 51.87l69.38-69.151-69.38 69.15zm0 52.382L122.415 32.516.43 154.1zm0 51.538L174.036 32.604.429 205.638zm9.994 40.399L224.397 32.768 10.423 246.037zm44.257 9.45L255.576 54.494 54.68 255.486zm51.315.059l149.483-148.99-149.483 148.99zm51.692.016l97.808-97.486-97.808 97.486zm52.54.012l45.294-45.144-45.294 45.144z" id="b"/><filter x="-15%" y="-12.7%" width="128.5%" height="128.5%" filterUnits="objectBoundingBox" id="a"><feOffset dx="-2" dy="4" in="SourceAlpha" result="shadowOffsetOuter1"/><feGaussianBlur stdDeviation="11.5" in="shadowOffsetOuter1" result="shadowBlurOuter1"/><feComposite in="shadowBlurOuter1" in2="SourceAlpha" operator="out" result="shadowBlurOuter1"/><feColorMatrix values="0 0 0 0 0.143247282 0 0 0 0 0.308646896 0 0 0 0 0.28204475 0 0 0 0.3 0" in="shadowBlurOuter1"/></filter><path d="M255.988 33H.012C.462 14.698 15.466 0 33.91 0H222.09c18.443 0 33.447 14.698 33.897 33z" id="c"/><filter x="-4.5%" y="-34.8%" width="109%" height="169.7%" filterUnits="objectBoundingBox" id="d"><feGaussianBlur stdDeviation="10" in="SourceAlpha" result="shadowBlurInner1"/><feOffset dy="-3" in="shadowBlurInner1" result="shadowOffsetInner1"/><feComposite in="shadowOffsetInner1" in2="SourceAlpha" operator="arithmetic" k2="-1" k3="1" result="shadowInnerInner1"/><feColorMatrix values="0 0 0 0 0 0 0 0 0 0 0 0 0 0 0 0 0 0 0.18 0" in="shadowInnerInner1"/></filter><circle id="f" cx="33" cy="17" r="4"/><filter x="-281.2%" y="-281.2%" width="662.5%" height="662.5%" filterUnits="objectBoundingBox" id="e"><feMorphology radius="2.5" operator="dilate" in="SourceAlpha" result="shadowSpreadOuter1"/><feOffset in="shadowSpreadOuter1" result="shadowOffsetOuter1"/><feGaussianBlur stdDeviation="5" in="shadowOffsetOuter1" result="shadowBlurOuter1"/><feComposite in="shadowBlurOuter1" in2="SourceAlpha" operator="out" result="shadowBlurOuter1"/><feColorMatrix values="0 0 0 0 0.882352941 0 0 0 0 0.470588235 0 0 0 0 0.48627451 0 0 0 0.58 0" in="shadowBlurOuter1"/></filter></defs><g transform="translate(25 19)" fill-rule="nonzero" fill="none"><use fill="#000" filter="url(#a)" xlink:href="#b"/><path stroke="#424242" d="M33.907.5C15.457.5.5 15.407.5 33.795v188.41c0 18.388 14.957 33.295 33.407 33.295h188.186c18.45 0 33.407-14.907 33.407-33.295V33.795C255.5 15.407 240.543.5 222.093.5H33.907zM.076 49.494L17.52 32.107l.706.709L.782 50.202l-.706-.708zm0 51.869l69.38-69.15.705.708-69.38 69.15-.705-.708zm0 52.383L122.063 32.162l.705.708L.782 154.454l-.706-.708zm0 51.538L173.683 32.25l.706.708L.782 205.992l-.706-.708zm9.994 40.398L224.044 32.414l.706.708L10.776 246.391l-.706-.709zm44.256 9.45l200.897-200.99.707.707-200.897 200.99-.707-.706zm51.316.06l149.483-148.99.706.708L106.348 255.9l-.706-.708zm51.692.015l97.808-97.485.706.708-97.808 97.486-.706-.709zm52.54.013l45.294-45.144.706.708-45.294 45.144-.706-.708z" stroke-linejoin="square" fill="#FFFEFE" fill-rule="evenodd"/><use fill="#F3F3F3" xlink:href="#c"/><use fill="#000" filter="url(#d)" xlink:href="#c"/><path stroke="#424242" d="M255.471 32.5c-.708-17.823-15.412-32-33.38-32H33.91C15.94.5 1.237 14.677.529 32.5H255.47z" stroke-linejoin="square"/><circle stroke="#424242" fill="#E1787C" cx="33" cy="17" r="5"/><g><use fill="#000" filter="url(#e)" xlink:href="#f"/><use fill-opacity=".51" fill="#E1787C" xlink:href="#f"/></g></g></svg>