<?xml version="1.0" encoding="UTF-8" standalone="no"?><!DOCTYPE svg PUBLIC "-//W3C//DTD SVG 1.1//EN" "http://www.w3.org/Graphics/SVG/1.1/DTD/svg11.dtd"><svg width="100%" height="100%" viewBox="0 0 1920 1080" version="1.1" xmlns="http://www.w3.org/2000/svg" xmlns:xlink="http://www.w3.org/1999/xlink" xml:space="preserve" xmlns:serif="http://www.serif.com/" style="fill-rule:evenodd;clip-rule:evenodd;stroke-linecap:round;stroke-linejoin:round;stroke-miterlimit:1.5;"><path d="M794.677,0l-540,540" style="stroke:#f9f9f9;stroke-width:1px;"/><path d="M481.909,0l-227.232,227.232" style="fill:none;stroke:#f9f9f9;stroke-width:1px;"/><path d="M1167.28,0l-508.58,508.581" style="fill:none;stroke:#f9f9f9;stroke-width:1px;"/><path d="M1363.4,0l-403.397,403.397" style="fill:none;stroke:#f9f9f9;stroke-width:1px;"/><path d="M973.871,0l-201.699,201.699" style="fill:none;stroke:#f9f9f9;stroke-width:1px;"/><path d="M1565.97,0l-508.581,508.581" style="fill:none;stroke:#f9f9f9;stroke-width:1px;"/><path d="M1695.38,0l-331.983,331.983" style="fill:none;stroke:#f9f9f9;stroke-width:1px;"/><path d="M618.06,0l-366.903,366.903" style="fill:none;stroke:#f9f9f9;stroke-width:1px;"/><path d="M1802.72,0l-506.52,506.52" style="fill:none;stroke:#f9f9f9;stroke-width:1px;"/><path d="M1886.24,0l-416.337,416.337" style="fill:none;stroke:#f9f9f9;stroke-width:1px;"/><path d="M1259.39,0l-460.11,460.109" style="fill:none;stroke:#f9f9f9;stroke-width:1px;"/><path d="M1451.01,0l-571.318,571.319" style="fill:none;stroke:#f9f9f9;stroke-width:1px;"/><path d="M326.765,0l-256.828,256.827" style="fill:none;stroke:#f9f9f9;stroke-width:1px;"/><path d="M879.689,0l-320.872,320.872" style="fill:none;stroke:#f9f9f9;stroke-width:1px;"/><path d="M1083.77,0l-378.562,378.562" style="fill:none;stroke:#f9f9f9;stroke-width:1px;"/><path d="M705.203,0l-355.734,355.735" style="fill:none;stroke:#f9f9f9;stroke-width:1px;"/><path d="M410.825,0l-320.872,320.872" style="fill:none;stroke:#f9f9f9;stroke-width:1px;"/></svg>